<svg xmlns="http://www.w3.org/2000/svg" xmlns:xlink="http://www.w3.org/1999/xlink" version="1.1" id="Layer_1" x="0px" y="0px" width="83.333px" height="100px" viewBox="0 0 83.333 100" enable-background="new 0 0 83.333 100" xml:space="preserve">
<path fill="#000000" d="M12.5,83.333c3.45,0,6.25-2.795,6.25-6.25c0-3.45-2.8-6.25-6.25-6.25c-3.451,0-6.25,2.8-6.25,6.25  C6.25,80.538,9.049,83.333,12.5,83.333z"/>
<path fill="#000000" d="M12.5,87.5C0.745,87.5,0,100,0,100h25C25,100,24.255,87.5,12.5,87.5z"/>
<path fill="#000000" d="M35.417,77.083c0,3.455,2.799,6.25,6.25,6.25c3.45,0,6.25-2.795,6.25-6.25c0-3.45-2.8-6.25-6.25-6.25  C38.216,70.833,35.417,73.633,35.417,77.083z"/>
<path fill="#000000" d="M41.667,87.5c-11.755,0-12.5,12.5-12.5,12.5h25C54.167,100,53.422,87.5,41.667,87.5z"/>
<path fill="#000000" d="M64.583,77.083c0,3.455,2.799,6.25,6.25,6.25c3.45,0,6.25-2.795,6.25-6.25c0-3.45-2.8-6.25-6.25-6.25  C67.382,70.833,64.583,73.633,64.583,77.083z"/>
<path fill="#000000" d="M70.833,87.5c-11.756,0-12.5,12.5-12.5,12.5h25C83.333,100,82.588,87.5,70.833,87.5z"/>
<path fill="#000000" d="M58.333,12.5c3.45,0,6.25-2.795,6.25-6.25c0-3.451-2.8-6.25-6.25-6.25c-3.451,0-6.25,2.799-6.25,6.25  C52.083,9.705,54.882,12.5,58.333,12.5z"/>
<path fill="#000000" d="M58.333,16.667c-11.756,0-12.5,12.5-12.5,12.5h25C70.833,29.167,70.088,16.667,58.333,16.667z"/>
<path fill="#000000" d="M27.083,12.5c3.451,0,6.25-2.795,6.25-6.25c0-3.451-2.799-6.25-6.25-6.25c-3.45,0-6.25,2.799-6.25,6.25  C20.833,9.705,23.633,12.5,27.083,12.5z"/>
<path fill="#000000" d="M27.083,16.667c-11.755,0-12.5,12.5-12.5,12.5h25C39.583,29.167,38.838,16.667,27.083,16.667z"/>
<polygon fill="#000000" points="14.583,62.5 39.583,62.5 43.75,62.5 68.75,62.5 68.75,66.667 72.917,66.667 72.917,58.333   43.75,58.333 43.75,41.667 58.333,41.667 58.333,33.333 54.167,33.333 54.167,37.5 29.167,37.5 29.167,33.333 25,33.333 25,41.667   39.583,41.667 39.583,58.333 10.417,58.333 10.417,66.667 14.583,66.667 "/>
</svg>